<svg xmlns="http://www.w3.org/2000/svg"  viewBox="0 0 100 100" width="100px" height="100px"><circle cx="50" cy="50" r="29" fill="#9f4bff"/><path fill="#edf7f5" d="M50,79.5c-16.267,0-29.5-13.233-29.5-29.5S33.733,20.5,50,20.5S79.5,33.733,79.5,50 S66.267,79.5,50,79.5z M50,21.5c-15.715,0-28.5,12.785-28.5,28.5S34.285,78.5,50,78.5S78.5,65.715,78.5,50S65.715,21.5,50,21.5z"/><path fill="#4343bf" d="M50,82c-17.645,0-32-14.355-32-32s14.355-32,32-32s32,14.355,32,32S67.645,82,50,82z M50,24 c-14.337,0-26,11.663-26,26s11.663,26,26,26s26-11.663,26-26S64.337,24,50,24z"/><path fill="#ff8405" d="M86,50H76c0-14.337-11.663-26-26-26V14C69.851,14,86,30.149,86,50z"/><path fill="#edf7f5" d="M65.5,48H54.011c-0.436-0.872-1.14-1.576-2.011-2.011V31h-4v14.989 c-1.476,0.738-2.5,2.249-2.5,4.011c0,2.485,2.015,4.5,4.5,4.5c1.763,0,3.273-1.024,4.011-2.5H65.5V48z"/></svg>